<?xml version="1.0" encoding="utf-8"?>
<!-- Generator: Adobe Illustrator 28.0.0, SVG Export Plug-In . SVG Version: 6.00 Build 0)  -->
<svg version="1.1" id="레이어_1" xmlns="http://www.w3.org/2000/svg" xmlns:xlink="http://www.w3.org/1999/xlink" x="0px"
	 y="0px" viewBox="0 0 256 256" style="enable-background:new 0 0 256 256;" xml:space="preserve">
<style type="text/css">
	.st0{fill:none;}
</style>
<rect y="0" class="st0" width="256" height="256"/>
<path d="M254.6,235.3c-18.2-31.3-47.3-54.9-81.8-66.1c41.7-24.8,55.3-78.6,30.6-120.3S124.8-6.4,83.1,18.4S27.8,97,52.6,138.7
	c7.5,12.6,18,23.1,30.6,30.6C48.7,180.4,19.6,204,1.4,235.3c-1.8,3-1.8,6.8,0,9.8c1.7,3,4.9,4.9,8.4,4.9h236.4
	c3.5,0,6.7-1.8,8.4-4.9C256.5,242.1,256.5,238.3,254.6,235.3z"/>
</svg>
