<?xml version="1.0" encoding="UTF-8"?>
<svg id="_레이어_2" data-name="레이어 2" xmlns="http://www.w3.org/2000/svg" viewBox="0 0 275.74 84.08">
  <defs>
    <style>
      .cls-1 {
        fill: #f5ca1f;
        stroke-width: 0px;
      }
    </style>
  </defs>
  <g id="Layer_1" data-name="Layer 1">
    <g>
      <path class="cls-1" d="M84.5,12.82c-.49-1.25-1.1-2.42-1.84-3.54-.74-1.11-1.59-2.15-2.57-3.13h0s0,0,0,0c-1.99-1.99-4.24-3.51-6.72-4.54-1.24-.51-2.53-.9-3.88-1.17-1.35-.27-2.75-.41-4.21-.44-.15,0-.3,0-.45,0h0c-2.81,0-5.45.46-7.89,1.4-2.44.94-4.68,2.34-6.69,4.2-1.04.96-1.96,2-2.75,3.12-.79,1.12-1.46,2.31-1.99,3.58h0s0,0,0,0h0c-.54,1.27-.95,2.62-1.23,4.03-.28,1.42-.43,2.9-.46,4.46,0,.16,0,.32,0,.48h0c0,1.49.12,2.93.37,4.3.25,1.37.61,2.68,1.11,3.92h0s0,0,0,0c.49,1.24,1.11,2.42,1.85,3.53.74,1.11,1.6,2.15,2.58,3.12,2,1.98,4.26,3.49,6.74,4.51h0c1.24.51,2.54.9,3.89,1.17,1.35.27,2.75.41,4.21.44.15,0,.3,0,.45,0h0c2.81,0,5.45-.46,7.88-1.4,2.43-.94,4.67-2.34,6.68-4.2,1.04-.96,1.95-2,2.74-3.11.79-1.12,1.45-2.31,1.98-3.57.53-1.27.94-2.6,1.22-4.01.28-1.41.43-2.89.46-4.43,0-.16,0-.33,0-.49h0c0-1.49-.12-2.93-.37-4.3-.24-1.37-.61-2.68-1.1-3.92M75.24,21.29c-.02.91-.1,1.75-.24,2.54-.14.78-.35,1.51-.62,2.17-.27.66-.6,1.27-.98,1.82-.39.55-.84,1.05-1.35,1.5h0c-1.03.9-2.13,1.56-3.31,2h0c-.59.22-1.2.39-1.83.5-.63.11-1.28.17-1.96.17-.07,0-.14,0-.21,0-.7-.01-1.37-.08-2.02-.21-.64-.13-1.26-.31-1.86-.55h0c-.6-.25-1.18-.54-1.74-.9s-1.09-.78-1.61-1.26c-.49-.45-.91-.95-1.28-1.49-.37-.54-.67-1.14-.92-1.78h0c-.25-.65-.43-1.34-.56-2.1-.13-.75-.19-1.56-.19-2.43,0-.11,0-.22,0-.32.02-.91.1-1.75.24-2.54.14-.79.35-1.51.62-2.17.27-.67.6-1.27.99-1.83.39-.55.85-1.06,1.37-1.51h0c1.04-.91,2.15-1.58,3.33-2.02.59-.22,1.2-.39,1.83-.5.63-.11,1.28-.17,1.96-.17.07,0,.13,0,.2,0h.01c.7.01,1.37.08,2.02.21.65.13,1.27.31,1.86.56.6.24,1.17.55,1.73.91.55.36,1.09.78,1.6,1.27.49.46.91.96,1.27,1.51.36.54.66,1.13.9,1.78h0s0,0,0,0h0,0c.24.66.43,1.36.55,2.12.12.76.19,1.57.19,2.44,0,.11,0,.21,0,.32"/>
      <path class="cls-1" d="M29.78,14.64c.24.37.69,1.27.96,1.82.13.27.4.44.7.44h9.97s.06-.01.09-.04c.02-.02.04-.05.04-.08v-.02s0,0,0,0c-.13-.73-.22-1.42-.34-2.08-.12-.65-.26-1.27-.49-1.85-.49-1.25-1.1-2.43-1.84-3.54-.74-1.11-1.59-2.15-2.57-3.13-2-1.99-4.24-3.51-6.72-4.54-1.24-.51-2.53-.9-3.88-1.17C24.33.18,22.93.03,21.48,0c-.15,0-.3,0-.45,0h0C18.2,0,15.57.47,13.13,1.4c-2.44.94-4.68,2.34-6.69,4.2h0c-1.04.96-1.96,2-2.75,3.12-.79,1.12-1.46,2.31-1.99,3.59-.54,1.27-.94,2.61-1.22,4.03C.18,17.75.03,19.24,0,20.8c0,.16,0,.32,0,.48H0C0,22.77.12,24.2.37,25.57c.24,1.37.61,2.68,1.11,3.92.49,1.24,1.11,2.42,1.85,3.53.74,1.11,1.6,2.15,2.58,3.12,2.01,1.98,4.26,3.49,6.74,4.51h0c1.24.51,2.54.9,3.89,1.17,1.35.27,2.75.41,4.21.44.15,0,.3,0,.45,0h0c2.81,0,5.45-.46,7.88-1.4,2.43-.94,4.67-2.34,6.68-4.2,1.04-.96,1.95-2,2.74-3.11.79-1.11,1.45-2.31,1.99-3.57h0c.25-.59.42-1.22.55-1.89.14-.67.25-1.38.4-2.12.03-.14.05-.29.08-.43v-.02s0-.05-.02-.07c-.02-.02-.04-.04-.06-.05-.01,0-.03,0-.05,0l-10.06.02c-.32,0-.6.19-.72.49-.02.04-.03.08-.04.1h0c-.27.66-.6,1.27-.99,1.82-.39.55-.84,1.05-1.35,1.5h0c-1.03.9-2.13,1.56-3.31,2h0c-.59.22-1.2.39-1.83.5-.63.11-1.28.17-1.96.17-.07,0-.14,0-.21,0-.7-.01-1.37-.08-2.02-.21-.65-.13-1.27-.31-1.87-.55h0c-.6-.24-1.18-.54-1.73-.9-.56-.36-1.09-.78-1.61-1.26h0s0,0,0,0h0c-.48-.45-.9-.95-1.27-1.49-.36-.54-.67-1.14-.92-1.78h0c-.25-.65-.43-1.34-.56-2.1-.13-.75-.19-1.56-.19-2.43,0-.11,0-.21,0-.32.02-.91.1-1.75.24-2.54.15-.78.35-1.51.62-2.17h0c.27-.67.6-1.27.99-1.83.39-.55.85-1.06,1.37-1.51,1.04-.91,2.15-1.58,3.33-2.02h0c.59-.22,1.2-.39,1.83-.5.63-.11,1.28-.17,1.96-.17.07,0,.14,0,.2,0h.01c.7.01,1.37.08,2.02.21.65.13,1.27.31,1.86.56h0c.6.24,1.17.55,1.72.91.55.36,1.09.78,1.6,1.27h0c.48.46.91.96,1.27,1.51Z"/>
      <path class="cls-1" d="M133.92.97c-.07-.04-.14-.08-.23-.11-.08-.02-.17-.04-.25-.04h-11.9,0-.02c-.18,0-.34.06-.48.16h0c-.07.05-.13.11-.18.17-.05.07-.1.14-.13.22l-8.68,22.48c-.11.28-.38.47-.69.48-.31,0-.58-.18-.7-.46L101.5,1.36c-.07-.16-.18-.3-.32-.39h0c-.14-.09-.31-.15-.48-.15h-11.31c-.12,0-.23.03-.33.07-.16.07-.28.18-.37.31-.05.07-.08.14-.11.23h0c-.02.08-.04.17-.04.25h0v38.88h0s0,.02,0,.02c0,.12.03.23.07.33l-.22.1h0s.22-.1.22-.1c.07.15.18.28.32.37.07.05.14.08.22.11h0c.08.02.17.04.25.04h8.24c.11,0,.22-.03.32-.07.1-.04.19-.1.28-.18.08-.08.14-.18.19-.28.04-.11.07-.22.07-.33v-17.05c0-.36.25-.66.6-.73.35-.07.7.12.83.46l7.04,17.65h0c.06.16.18.3.32.4h0c.14.09.31.15.49.15h7.04c.17,0,.34-.06.48-.15.07-.05.13-.11.18-.17.05-.07.1-.14.13-.22l7.04-17.87c.13-.33.48-.53.83-.46.35.07.61.37.61.73v17.3c0,.12.03.23.07.33.07.15.18.28.31.37.07.05.14.08.23.11.08.02.17.04.25.04h8.52c.11,0,.22-.03.32-.07.1-.04.19-.1.28-.18.08-.08.14-.18.19-.28.04-.11.07-.22.07-.33V1.67c0-.12-.03-.23-.07-.33-.07-.16-.18-.28-.31-.37"/>
      <path class="cls-1" d="M166.39,8.76h0c-.33-.78-.74-1.51-1.23-2.21-.49-.69-1.06-1.35-1.7-1.95-.66-.62-1.37-1.17-2.13-1.64-.76-.47-1.57-.86-2.43-1.17-1.71-.62-3.61-.93-5.67-.93h-14.66c-.12,0-.23.03-.33.07-.15.07-.28.18-.37.32-.05.07-.08.14-.11.23-.02.08-.04.17-.04.25h0v38.9c0,.12.03.23.07.33.07.15.18.28.31.37.07.05.14.08.23.11.08.02.17.04.25.04h8.68c.11,0,.22-.03.32-.07.1-.04.19-.1.28-.18.08-.08.14-.18.19-.28.04-.11.07-.22.07-.33v-12.37c0-.2.08-.39.22-.53.14-.14.33-.22.53-.22h4.37c.12,0,.24,0,.36,0h0c1.98-.03,3.8-.35,5.45-.97,1.65-.61,3.13-1.52,4.4-2.72h0c.66-.62,1.24-1.28,1.74-2,.5-.71.92-1.48,1.25-2.28h0c.33-.81.58-1.66.74-2.55.16-.89.25-1.83.25-2.8,0-.1,0-.2,0-.3h0c-.02-.92-.11-1.81-.28-2.66-.17-.85-.43-1.67-.76-2.45M157.03,14.21h0v.02c0,.32-.03.62-.08.9-.05.28-.13.54-.23.77h0c-.1.24-.23.46-.38.67h0c-.15.21-.33.4-.54.59h0c-.21.18-.43.34-.66.47h0c-.23.14-.49.25-.76.35h0c-.54.19-1.16.3-1.87.31-.05,0-.09,0-.14,0h-3.43c-.2,0-.39-.08-.53-.22-.14-.14-.22-.33-.22-.53v-6.7c0-.2.08-.39.22-.53.14-.14.33-.22.53-.22h3.43c.76,0,1.43.1,2,.29.28.09.55.21.79.35.24.14.46.3.67.48h0c.2.18.37.37.52.57.15.2.27.42.37.66h0c.1.24.18.49.23.77.05.28.09.58.09.9,0,.03,0,.06,0,.09"/>
      <path class="cls-1" d="M210.41,12.83h0c-.49-1.25-1.1-2.43-1.84-3.54-.74-1.11-1.59-2.16-2.57-3.13-2-1.99-4.24-3.51-6.72-4.54-1.24-.51-2.53-.9-3.88-1.17-1.35-.27-2.75-.42-4.21-.44-.15,0-.3,0-.45,0h0c-2.82,0-5.45.47-7.89,1.4h0c-2.44.94-4.68,2.34-6.69,4.2-1.04.96-1.96,2-2.75,3.12-.79,1.12-1.46,2.31-1.99,3.59-.54,1.27-.94,2.61-1.22,4.03-.28,1.42-.43,2.9-.46,4.46,0,.16,0,.32,0,.48h0c0,1.49.12,2.93.37,4.3.24,1.37.61,2.68,1.11,3.92.49,1.24,1.11,2.42,1.85,3.53.74,1.11,1.6,2.15,2.58,3.12,2,1.98,4.26,3.49,6.74,4.51h0c1.24.51,2.54.9,3.89,1.17,1.35.27,2.75.41,4.21.44.15,0,.3,0,.45,0h0c2.81,0,5.45-.47,7.88-1.4,2.43-.94,4.67-2.34,6.68-4.2,1.04-.96,1.95-2,2.74-3.11.79-1.12,1.45-2.31,1.99-3.57.53-1.27.94-2.6,1.22-4.01.28-1.41.43-2.89.46-4.43,0-.16,0-.32,0-.48h0c0-1.49-.12-2.93-.37-4.3-.24-1.37-.61-2.68-1.1-3.93M201.14,21.29h-.74s.74,0,.74,0c-.02.91-.1,1.75-.24,2.54-.14.78-.35,1.51-.62,2.17h0c-.27.66-.6,1.27-.98,1.82-.39.55-.84,1.05-1.35,1.5h0c-1.03.9-2.13,1.56-3.31,2-.59.22-1.2.39-1.83.5-.63.11-1.28.17-1.96.17-.07,0-.14,0-.21,0-.7-.01-1.37-.08-2.02-.21-.65-.13-1.27-.31-1.87-.55-.6-.24-1.18-.54-1.74-.9-.55-.35-1.08-.76-1.59-1.24h0s-.02-.02-.02-.02c-.49-.45-.91-.95-1.28-1.49h0c-.37-.55-.67-1.14-.92-1.78h0c-.25-.65-.43-1.34-.56-2.1-.13-.76-.19-1.57-.19-2.43,0-.1,0-.21,0-.32.02-.91.1-1.75.24-2.54.14-.79.35-1.51.62-2.17h0c.27-.67.6-1.27.99-1.83.39-.56.85-1.06,1.37-1.51h0c1.04-.91,2.15-1.58,3.33-2.02h0c.59-.22,1.2-.39,1.83-.5.63-.11,1.28-.17,1.96-.17.07,0,.13,0,.2,0h.01c.7.01,1.37.08,2.02.21.65.13,1.27.31,1.86.56.6.24,1.17.55,1.73.91.55.36,1.09.78,1.6,1.27h0c.48.46.91.96,1.27,1.51.36.54.66,1.13.9,1.78h0s0,.02,0,.02c.24.65.43,1.35.55,2.11.12.76.19,1.57.19,2.44,0,.11,0,.21,0,.32"/>
      <path class="cls-1" d="M245.12,24.94c-.51-1.32-1.27-2.55-2.26-3.68h0c-1.03-1.17-2.29-2.14-3.74-2.91-1.46-.77-3.11-1.33-4.96-1.71h0s0,0,0,0h0s-5.19-1.08-5.19-1.08h-.01s0,0,0,0h0c-.57-.12-1.05-.27-1.44-.45h0c-.3-.14-.54-.29-.75-.46h0c-.15-.12-.28-.25-.39-.39h0c-.1-.13-.19-.28-.26-.44h0c-.07-.16-.12-.33-.16-.51-.04-.19-.06-.39-.06-.61h0v-.07h0c0-.22.03-.43.08-.62h0c.05-.19.12-.38.22-.56h0c.1-.18.22-.36.37-.54.15-.18.33-.35.54-.52h0c.2-.16.41-.3.64-.42.23-.12.47-.22.73-.3.52-.16,1.12-.25,1.79-.25.05,0,.09,0,.14,0h0c.49,0,.93.05,1.34.11.41.07.78.16,1.11.27.33.12.63.25.89.42.09.05.16.11.24.17.07.06.14.11.2.16.12.1.21.19.22.19l.03.03s.04.05.06.07c.02.02.04.05.06.07.04.05.09.11.15.19.11.14.25.33.4.53.29.4.62.88.88,1.31.06.1.15.19.25.26.15.1.31.15.48.15.06,0,.12,0,.19-.02.02,0,.05,0,.07-.01h0s.01,0,.01,0h0l7.88-.99c.09-.02.18-.07.25-.11.12-.08.21-.19.28-.31.07-.12.1-.26.1-.41,0-.04,0-.09-.01-.14-.21-1.34-.63-2.62-1.26-3.84-.63-1.23-1.49-2.41-2.59-3.54-.58-.6-1.25-1.13-2.01-1.6-.76-.47-1.62-.88-2.57-1.23-1.91-.71-4.06-1.08-6.44-1.12-.11,0-.22,0-.33,0h0c-1.92,0-3.74.3-5.43.9-1.69.6-3.26,1.5-4.68,2.7h0c-.74.62-1.39,1.28-1.95,1.99-.56.71-1.04,1.46-1.43,2.26h0c-.38.8-.68,1.64-.88,2.52-.2.88-.31,1.8-.32,2.75,0,.08,0,.16,0,.25h0c0,1.49.24,2.9.73,4.2.49,1.31,1.22,2.51,2.19,3.6h0c.99,1.12,2.18,2.05,3.54,2.78h0c1.36.73,2.91,1.27,4.61,1.63h0s5.29,1.08,5.29,1.08h0c.6.13,1.11.3,1.55.51.43.21.79.45,1.07.72h0c.14.13.25.27.35.41.1.14.18.28.24.42h0c.06.15.11.3.14.46h0c.03.16.05.34.05.52h0v.05h0c0,.25-.03.47-.08.68h0c-.05.2-.12.4-.21.57h0c-.09.18-.21.35-.35.51h0c-.14.16-.32.32-.52.47h0c-.19.14-.41.27-.64.38-.23.11-.48.2-.76.28-.55.15-1.19.23-1.92.23-.05,0-.11,0-.17,0h-.01c-1.19-.02-2.21-.19-3.06-.48-.43-.15-.81-.33-1.16-.54h0c-.35-.21-.66-.45-.94-.72h0c-.29-.29-.55-.59-.77-.9h0s-.06-.09-.09-.13c-.03-.05-.06-.1-.09-.15-.07-.11-.14-.25-.23-.39-.16-.29-.35-.61-.49-.87-.08-.14-.15-.26-.2-.34-.13-.07-.27-.11-.41-.11h-.03s-.12.02-.22.02c-.19.02-.46.05-.78.08-.65.07-1.53.16-2.45.25-1.85.19-3.89.4-4.71.48-.16.02-.27.03-.32.03h-.02c-.1.03-.19.07-.27.12-.12.08-.22.18-.3.31h0c-.07.12-.11.27-.11.42,0,.02,0,.05,0,.07h0c.05.65.13,1.09.24,1.47.11.38.25.71.47,1.15.14.29.32.63.53,1.04.78,1.55,1.86,3,3.24,4.35.71.69,1.49,1.3,2.35,1.83.85.52,1.78.96,2.78,1.32,1.99.71,4.25,1.07,6.78,1.12.14,0,.28,0,.42,0,2.18,0,4.17-.3,5.96-.93h0c1.79-.62,3.39-1.57,4.75-2.82h0c.69-.64,1.31-1.31,1.84-2.01.53-.7.98-1.44,1.34-2.2.36-.76.64-1.56.83-2.38.19-.82.29-1.67.31-2.54,0-.08,0-.16,0-.23h0c0-1.48-.25-2.89-.76-4.21Z"/>
      <polygon class="cls-1" points="274.01 16.82 274.01 16.82 274.01 16.82 274.01 16.82"/>
      <path class="cls-1" d="M275.74,1.74h0v-.02c0-.11-.02-.22-.07-.32-.04-.1-.1-.19-.18-.27-.08-.08-.18-.15-.28-.19-.11-.04-.22-.07-.33-.07l-24.62-.07h-.02c-.11,0-.23.03-.33.07-.15.07-.28.18-.37.31-.05.07-.08.14-.11.22-.02.08-.04.17-.04.25l-.11,38.88v.02c0,.11.02.22.07.32.04.1.1.19.18.28.08.08.18.14.28.19.1.04.22.07.33.07l24.68.07h.02c.11,0,.22-.02.32-.07.1-.04.19-.1.28-.18.08-.08.14-.18.19-.28.04-.11.07-.22.07-.33l.02-8.22v-.02c0-.11-.03-.23-.07-.33-.07-.16-.18-.28-.31-.38-.07-.05-.14-.08-.23-.11h0c-.08-.03-.17-.04-.25-.04l-14.4-.04c-.2,0-.39-.08-.53-.22-.14-.14-.22-.33-.22-.53v-4.24c.01-.2.09-.39.23-.53.14-.14.33-.22.53-.22l12.86.04h.02c.11,0,.22-.03.32-.07.1-.04.19-.1.28-.18.08-.08.14-.18.19-.28.04-.1.07-.21.07-.33l.02-7.62v-.02c0-.12-.02-.22-.07-.32-.04-.1-.1-.19-.18-.28-.08-.08-.18-.14-.28-.19-.11-.04-.22-.07-.33-.07l-12.87-.04c-.2,0-.39-.08-.53-.22-.14-.14-.22-.33-.22-.53v-4.18c.01-.2.09-.39.23-.53.14-.14.33-.22.53-.22l14.34.04h.02c.11,0,.22-.02.32-.07.1-.04.19-.1.27-.18.08-.08.14-.18.19-.28.04-.11.07-.22.07-.33l.02-8.17h0Z"/>
      <polygon class="cls-1" points="249.21 41.64 249.21 41.64 249.21 41.64 249.21 41.64"/>
      <path class="cls-1" d="M124.78,61.53h0c-.75-1.91-1.88-3.62-3.38-5.11h0c-1.53-1.52-3.25-2.69-5.14-3.47h0c-1.9-.79-3.97-1.2-6.19-1.24-.12,0-.23,0-.35,0h0c-2.15,0-4.17.36-6.04,1.07-1.87.72-3.58,1.79-5.12,3.22h0c-.8.73-1.5,1.53-2.11,2.39-.61.86-1.12,1.77-1.53,2.75-.41.97-.72,2-.94,3.09-.21,1.08-.33,2.22-.35,3.41,0,.13,0,.25,0,.37h0c0,1.14.09,2.24.28,3.28.19,1.05.47,2.05.85,3,.38.95.85,1.85,1.42,2.7.57.85,1.23,1.64,1.98,2.39,1.53,1.52,3.26,2.67,5.16,3.46,1.9.78,3.97,1.19,6.2,1.23.11,0,.23,0,.35,0h0c2.15,0,4.17-.36,6.03-1.07,1.86-.72,3.57-1.8,5.11-3.22.79-.73,1.49-1.53,2.1-2.38.6-.85,1.11-1.77,1.52-2.74.41-.97.72-2,.93-3.07.21-1.08.33-2.21.35-3.39,0-.12,0-.25,0-.37h0c0-2.28-.37-4.39-1.12-6.3ZM117.54,68h0c-.02,1.37-.25,2.55-.65,3.55-.2.5-.45.95-.74,1.36-.29.41-.63.78-1.01,1.12-.78.68-1.6,1.17-2.49,1.51-.88.33-1.83.5-2.85.5-.05,0-.11,0-.16,0h-.01c-1.05-.02-2.02-.21-2.91-.57h0c-.9-.36-1.74-.9-2.52-1.62h0c-.37-.34-.68-.71-.96-1.12-.27-.41-.5-.85-.69-1.34,0,0,0,0,0,0,0,0,0,0,0,0-.37-.97-.56-2.1-.56-3.4,0-.08,0-.16,0-.24.01-.69.07-1.32.18-1.92.11-.59.27-1.13.47-1.63.2-.5.45-.95.74-1.37.29-.42.63-.79,1.02-1.13,0,0,0,0,0,0h0c.78-.68,1.61-1.18,2.5-1.52h0s0,0,0,0c.88-.33,1.83-.5,2.85-.5.05,0,.11,0,.16,0,1.05.02,2.02.21,2.92.58.9.37,1.73.91,2.5,1.63h0c.36.34.68.72.95,1.13.27.41.5.86.68,1.34.37.97.56,2.11.56,3.42,0,.08,0,.16,0,.24"/>
      <path class="cls-1" d="M149.06,59.79c.04-.06.07-.13.09-.2.02-.07.03-.15.03-.22v-6.27c0-.1-.02-.19-.06-.28-.04-.09-.09-.17-.16-.24-.07-.07-.16-.13-.25-.16-.09-.04-.19-.06-.29-.06h-19.07,0-.02c-.1,0-.2.02-.29.06-.14.06-.25.16-.33.28h0c-.04.06-.07.13-.09.2-.02.07-.03.15-.03.22v29.59h0c0,.11.02.22.06.3.06.14.15.25.28.33.06.04.13.07.2.09.07.02.15.03.22.03h6.65c.1,0,.19-.02.28-.06.09-.04.17-.09.24-.16.07-.07.13-.16.16-.25.04-.09.06-.19.06-.29v-9.7c0-.16.06-.31.18-.42s.27-.18.42-.18h9.59c.1,0,.19-.02.28-.06.09-.04.17-.09.24-.16.07-.07.13-.15.16-.25.04-.09.06-.19.06-.29v-6.02c0-.1-.02-.2-.06-.29-.06-.14-.15-.25-.28-.33-.06-.04-.13-.07-.2-.09h0c-.07-.02-.15-.03-.22-.03h-9.62c-.16,0-.31-.06-.42-.18-.11-.11-.18-.27-.18-.42v-3.54c0-.16.06-.31.18-.42.11-.11.27-.17.42-.17h11.12,0,.02c.1,0,.2-.02.29-.06.14-.06.25-.15.33-.28"/>
      <path class="cls-1" d="M160.47,64.87c-.16,0-.31-.06-.42-.18s-.18-.27-.18-.42v-3.54c0-.16.06-.31.18-.42s.27-.18.42-.18h11.13c.1,0,.19-.02.28-.06.09-.04.17-.09.24-.16.07-.07.13-.16.16-.25.04-.09.06-.19.06-.29v-6.27c0-.1-.02-.2-.06-.29-.06-.14-.15-.25-.28-.33-.06-.04-.13-.07-.2-.09-.07-.02-.15-.03-.22-.03h-19.07,0-.02c-.1,0-.2.02-.29.06-.14.06-.25.15-.33.28h0c-.04.06-.07.13-.09.2-.02.07-.03.15-.03.22v29.6c0,.1.02.2.06.29.06.14.15.25.28.33.06.04.13.07.2.09h0c.07.02.15.03.22.03h6.65c.1,0,.19-.02.28-.06.09-.04.17-.09.24-.16.07-.07.13-.16.16-.25.04-.09.06-.19.06-.29v-9.7c0-.16.06-.31.18-.42s.27-.17.42-.17h9.59c.1,0,.19-.02.28-.06.09-.04.17-.09.24-.16.07-.07.13-.16.16-.25.04-.09.06-.19.06-.29v-6.02c0-.1-.02-.2-.06-.29-.06-.14-.15-.25-.28-.33-.06-.04-.13-.07-.2-.09h0c-.07-.02-.15-.03-.22-.03h-9.62Z"/>
      <path class="cls-1" d="M193.28,64.19h-9.66c-.16,0-.31-.06-.42-.18-.11-.11-.18-.27-.18-.42v-2.92c0-.16.06-.31.18-.42.11-.11.27-.18.42-.18h10.8c.1,0,.19-.02.28-.06.09-.04.17-.09.24-.16.07-.07.13-.16.16-.25.04-.09.06-.19.06-.29v-6.23c0-.1-.02-.19-.06-.28-.04-.09-.09-.17-.16-.24-.07-.07-.16-.13-.25-.16-.09-.04-.19-.06-.29-.06h-18.75c-.1,0-.2.02-.29.06-.14.06-.25.15-.33.28-.04.06-.07.13-.09.2-.02.07-.03.15-.03.22v29.6c0,.1.02.2.06.29.06.14.15.25.28.33h0c.06.04.13.07.2.09.07.02.15.03.22.03h18.79c.1,0,.19-.02.28-.06.09-.04.17-.09.24-.16.07-.07.13-.16.16-.25.04-.09.06-.19.06-.29v-6.27c0-.1-.02-.2-.06-.29-.06-.14-.15-.25-.28-.33-.06-.04-.13-.07-.2-.09-.07-.02-.15-.03-.22-.03h-10.83c-.16,0-.31-.06-.42-.18-.11-.11-.18-.27-.18-.42v-2.96c0-.16.06-.31.18-.42s.27-.17.42-.17h9.67c.1,0,.19-.02.28-.06.09-.04.17-.09.24-.16.07-.07.13-.16.16-.25.04-.09.06-.19.06-.29v-5.81c0-.1-.02-.2-.06-.29-.06-.14-.15-.25-.28-.33-.06-.04-.13-.07-.2-.09-.07-.02-.15-.03-.22-.03"/>
      <path class="cls-1" d="M218.05,53.11v-.02c0-.1-.02-.19-.06-.28-.04-.09-.09-.17-.16-.24-.07-.07-.15-.13-.25-.16-.09-.04-.19-.06-.29-.06h-18.75c-.1,0-.19.02-.28.06-.09.04-.17.09-.24.16-.07.07-.13.15-.16.25-.04.09-.06.19-.06.29v29.6c0,.1.02.2.06.29.06.14.15.25.28.33.06.04.13.07.2.09h0c.07.02.15.03.22.03h18.79c.1,0,.19-.02.28-.06.09-.04.17-.09.24-.16.07-.07.13-.15.16-.25.04-.09.06-.19.06-.29v-6.27c0-.1-.02-.2-.06-.29-.06-.14-.15-.25-.28-.33-.06-.04-.13-.07-.2-.09-.07-.02-.15-.03-.22-.03h-10.83c-.16,0-.31-.06-.42-.18s-.18-.27-.18-.42v-2.96c0-.16.06-.31.18-.42s.27-.18.42-.18h9.67c.1,0,.19-.02.28-.06.09-.04.17-.09.24-.16s.13-.16.16-.25c.04-.09.06-.19.06-.29v-5.81c0-.1-.02-.2-.06-.29-.06-.14-.15-.25-.28-.33-.06-.04-.13-.07-.2-.09-.07-.02-.15-.03-.22-.03h-9.66c-.16,0-.31-.06-.42-.18-.11-.11-.18-.27-.18-.42v-2.92c0-.16.06-.31.18-.42.11-.11.27-.17.42-.17h10.8c.1,0,.19-.02.28-.06.09-.04.17-.09.24-.16s.13-.15.16-.25c.04-.09.06-.19.06-.29v-6.21Z"/>
      <path class="cls-1" d="M79.42,60.06h0c.46.19.9.42,1.33.7.43.28.84.6,1.23.97.37.35.7.74.98,1.16s.51.88.7,1.38c.04.1.07.2.11.3,0,.02.03.05.07.05h8.02s.03,0,.05-.02c.01-.02.02-.03.02-.05h0s0-.02,0-.02c-.1-.56-.17-1.09-.26-1.59-.09-.5-.2-.97-.37-1.41-.37-.95-.84-1.86-1.41-2.71-.56-.85-1.22-1.65-1.97-2.39-1.53-1.53-3.25-2.69-5.14-3.47h0c-.95-.39-1.94-.69-2.97-.9-1.03-.21-2.11-.32-3.22-.34-.12,0-.23,0-.35,0h0c-2.16,0-4.18.36-6.04,1.07-1.87.72-3.58,1.79-5.13,3.22-.8.73-1.5,1.53-2.11,2.39-.61.86-1.12,1.77-1.53,2.74-.41.97-.72,2-.94,3.09-.21,1.08-.33,2.22-.35,3.41,0,.12,0,.25,0,.37h0c0,1.14.09,2.24.28,3.29.19,1.05.47,2.05.85,3,.38.95.85,1.85,1.41,2.7.57.85,1.23,1.64,1.98,2.39h0c1.53,1.52,3.26,2.67,5.16,3.46,0,0,0,0,0,0,.95.39,1.94.69,2.98.89,1.03.21,2.11.32,3.22.34.12,0,.23,0,.35,0h0c2.16,0,4.17-.36,6.04-1.07,1.86-.72,3.57-1.79,5.11-3.22.79-.73,1.49-1.53,2.1-2.38.6-.85,1.11-1.77,1.52-2.74h0c.19-.45.32-.93.42-1.44.1-.51.19-1.06.3-1.63.02-.11.04-.22.06-.33h0s0-.01,0-.01c0-.02,0-.03-.02-.05-.02-.01-.02-.02-.05-.02h-8.05s-.06.02-.06.04c-.05.14-.1.28-.15.41-.21.51-.46.98-.76,1.4-.3.42-.65.81-1.04,1.15-.79.69-1.64,1.2-2.54,1.54h0c-.45.17-.92.3-1.41.38-.49.09-.99.13-1.51.13-.05,0-.11,0-.16,0-.54,0-1.06-.06-1.56-.16-.5-.1-.98-.24-1.44-.43h0c-.46-.19-.91-.42-1.34-.69-.43-.28-.84-.6-1.24-.97h0s0,0,0,0h0s0,0,0,0h0s0,0,0,0c-.37-.35-.7-.72-.97-1.14-.28-.42-.52-.88-.71-1.37-.19-.5-.33-1.03-.43-1.61-.1-.58-.15-1.2-.15-1.87,0-.08,0-.17,0-.25.01-.7.08-1.35.19-1.95.11-.6.27-1.16.48-1.67h0c.21-.51.46-.98.76-1.41.3-.43.65-.81,1.05-1.16h0c.8-.7,1.65-1.21,2.56-1.56.45-.17.92-.3,1.41-.39.49-.09.99-.13,1.51-.13.05,0,.11,0,.16,0,.54,0,1.06.06,1.55.16.5.1.97.24,1.43.43"/>
      <rect class="cls-1" y="52.63" width="59.98" height="1.85"/>
      <rect class="cls-1" y="81.59" width="59.98" height="1.85"/>
      <rect class="cls-1" y="67.07" width="55.47" height="1.85"/>
      <rect class="cls-1" y="59.85" width="56.33" height="1.85"/>
      <rect class="cls-1" y="74.33" width="56.33" height="1.85"/>
      <rect class="cls-1" x="222.68" y="52.63" width="53.06" height="1.85"/>
      <rect class="cls-1" x="222.68" y="59.85" width="53.06" height="1.85"/>
      <rect class="cls-1" x="222.68" y="67.12" width="53.06" height="1.85"/>
      <rect class="cls-1" x="222.68" y="74.33" width="53.06" height="1.85"/>
      <rect class="cls-1" x="222.68" y="81.59" width="53.06" height="1.85"/>
    </g>
  </g>
</svg>